<?xml version="1.0" encoding="UTF-8" standalone="no"?>
<svg
   width="60"
   height="60"
   version="1.1"
   id="svg1"
   xml:space="preserve"
   sodipodi:docname="medium-rotary.svg"
   inkscape:version="1.3.2 (091e20ef0f, 2023-11-25)"
   xmlns:inkscape="http://www.inkscape.org/namespaces/inkscape"
   xmlns:sodipodi="http://sodipodi.sourceforge.net/DTD/sodipodi-0.dtd"
   xmlns:xlink="http://www.w3.org/1999/xlink"
   xmlns="http://www.w3.org/2000/svg"
   xmlns:svg="http://www.w3.org/2000/svg"><sodipodi:namedview
     id="namedview1"
     pagecolor="#ffffff"
     bordercolor="#000000"
     borderopacity="0.25"
     inkscape:showpageshadow="2"
     inkscape:pageopacity="0.0"
     inkscape:pagecheckerboard="0"
     inkscape:deskcolor="#d1d1d1"
     inkscape:zoom="31.416667"
     inkscape:cx="29.984085"
     inkscape:cy="30"
     inkscape:window-width="3840"
     inkscape:window-height="2091"
     inkscape:window-x="0"
     inkscape:window-y="0"
     inkscape:window-maximized="1"
     inkscape:current-layer="svg1" /><defs
     id="defs1"><linearGradient
       id="linearGradient92"><stop
         style="stop-color:#aaa;stop-opacity:1"
         offset="0"
         id="stop89" /><stop
         style="stop-color:#8c8c8c;stop-opacity:.99985862"
         offset=".08"
         id="stop90" /><stop
         style="stop-color:#8c8c8c;stop-opacity:1"
         offset=".924"
         id="stop91" /><stop
         style="stop-color:#aaa;stop-opacity:1"
         offset="1"
         id="stop92" /></linearGradient><linearGradient
       id="linearGradient56"><stop
         style="stop-color:#8c8c8c;stop-opacity:1"
         offset="0"
         id="stop53" /><stop
         style="stop-color:#787878;stop-opacity:1"
         offset=".08"
         id="stop54" /><stop
         style="stop-color:#787878;stop-opacity:1"
         offset=".924"
         id="stop55" /><stop
         style="stop-color:#8c8c8c;stop-opacity:1"
         offset="1"
         id="stop56" /></linearGradient><linearGradient
       id="linearGradient50"><stop
         style="stop-color:#f0f0f0;stop-opacity:1"
         offset="0"
         id="stop51" /><stop
         style="stop-color:#dcdcdc;stop-opacity:1"
         offset="1"
         id="stop50" /></linearGradient><linearGradient
       id="linearGradient45"><stop
         style="stop-color:#aaa;stop-opacity:1"
         offset="0"
         id="stop49" /><stop
         style="stop-color:#c8c8c8;stop-opacity:1"
         offset="1"
         id="stop48" /></linearGradient><linearGradient
       id="linearGradient43"><stop
         style="stop-color:#aaa;stop-opacity:1"
         offset="0"
         id="stop43" /><stop
         style="stop-color:#8c8c8c;stop-opacity:1"
         offset=".08"
         id="stop45" /><stop
         style="stop-color:#8c8c8c;stop-opacity:1"
         offset=".924"
         id="stop46" /><stop
         style="stop-color:#aaa;stop-opacity:1"
         offset="1"
         id="stop44" /></linearGradient><linearGradient
       id="linearGradient41"><stop
         style="stop-color:#8c8c8c;stop-opacity:1"
         offset="0"
         id="stop42" /><stop
         style="stop-color:#6e6e6e;stop-opacity:1"
         offset="1"
         id="stop41" /></linearGradient><linearGradient
       id="linearGradient40"><stop
         style="stop-color:#aaa;stop-opacity:1"
         offset="0"
         id="stop39" /><stop
         style="stop-color:#d2d2d2;stop-opacity:1"
         offset="1"
         id="stop47" /></linearGradient><linearGradient
       id="linearGradient34"><stop
         style="stop-color:#c8c8c8;stop-opacity:1"
         offset="0"
         id="stop34" /><stop
         style="stop-color:#e6e6e6;stop-opacity:1"
         offset="1"
         id="stop35" /></linearGradient><linearGradient
       xlink:href="#linearGradient43"
       id="linearGradient4"
       gradientUnits="userSpaceOnUse"
       gradientTransform="matrix(.9 0 0 .90205 39.815 24.436)"
       x1="197.958"
       y1="103.309"
       x2="201.763"
       y2="103.309" /><linearGradient
       xlink:href="#linearGradient41"
       id="linearGradient10"
       gradientUnits="userSpaceOnUse"
       gradientTransform="translate(-341.56857,-27.545232)"
       x1="199.858"
       y1="92.369"
       x2="199.858"
       y2="152.369" /><linearGradient
       xlink:href="#linearGradient40"
       id="linearGradient11"
       gradientUnits="userSpaceOnUse"
       gradientTransform="matrix(-0.77942286,-0.45,0.45205334,-0.78297935,270.58189,174.50496)"
       x1="308.682"
       y1="31.576"
       x2="308.143"
       y2="-7.565" /><linearGradient
       xlink:href="#linearGradient34"
       id="linearGradient12"
       gradientUnits="userSpaceOnUse"
       gradientTransform="matrix(-0.77942286,-0.45,0.451025,-0.78119822,270.69419,174.31045)"
       x1="197.556"
       y1="149.367"
       x2="197.958"
       y2="109.129" /><linearGradient
       xlink:href="#linearGradient34"
       id="linearGradient13"
       gradientUnits="userSpaceOnUse"
       gradientTransform="matrix(-0.77942286,-0.45,0.451025,-0.78119822,270.69419,174.31045)"
       x1="197.556"
       y1="149.367"
       x2="197.958"
       y2="109.129" /><linearGradient
       xlink:href="#linearGradient92"
       id="linearGradient17"
       gradientUnits="userSpaceOnUse"
       gradientTransform="matrix(-0.77942286,-0.45,0.451025,-0.78119822,270.69419,174.31045)"
       x1="197.958"
       y1="103.309"
       x2="201.763"
       y2="103.309" /><linearGradient
       xlink:href="#linearGradient45"
       id="linearGradient18"
       gradientUnits="userSpaceOnUse"
       gradientTransform="translate(93.104 -193.623)"
       x1="171.679"
       y1="305.598"
       x2="170.421"
       y2="321.542" /><linearGradient
       xlink:href="#linearGradient50"
       id="linearGradient19"
       gradientUnits="userSpaceOnUse"
       gradientTransform="translate(93.104 -193.623)"
       x1="255.058"
       y1="105.954"
       x2="255.058"
       y2="110.607" /><linearGradient
       xlink:href="#linearGradient56"
       id="linearGradient20"
       gradientUnits="userSpaceOnUse"
       gradientTransform="matrix(.9 0 0 .90205 15.454 -15.545)"
       x1="197.958"
       y1="103.309"
       x2="201.763"
       y2="103.309" /><linearGradient
       xlink:href="#linearGradient191"
       id="linearGradient5"
       gradientUnits="userSpaceOnUse"
       gradientTransform="matrix(1 0 0 1.02858 5 92.463)"
       x1="210"
       y1="170.146"
       x2="260"
       y2="170.146" /><linearGradient
       id="linearGradient191"><stop
         style="stop-color:#d2d2d2;stop-opacity:1"
         offset="0"
         id="stop192" /><stop
         style="stop-color:#b4b4b4;stop-opacity:1"
         offset="1"
         id="stop193" /></linearGradient><linearGradient
       xlink:href="#linearGradient8"
       id="linearGradient6"
       gradientUnits="userSpaceOnUse"
       gradientTransform="matrix(1 0 0 1.02858 5 92.463)"
       x1="210"
       y1="170.146"
       x2="260"
       y2="170.146" /><linearGradient
       id="linearGradient8"><stop
         style="stop-color:#a0a0a0;stop-opacity:1"
         offset="0"
         id="stop6" /><stop
         style="stop-color:#828282;stop-opacity:1"
         offset="1"
         id="stop7" /></linearGradient></defs><path
     id="path12-9"
     style="fill:url(#linearGradient10);stroke-opacity:0.4"
     transform="rotate(-150)"
     d="m -10.980564,-10.981229 a 30,30 0 0 1 -30,30 30,30 0 0 1 -30,-30 30,30 0 0 1 30,-30 30,30 0 0 1 30,30 z" /><path
     id="path1-5-5-8"
     style="display:inline;fill:url(#linearGradient11);fill-opacity:1;stroke:none;stroke-width:0.901024;stroke-opacity:0.4;-inkscape-stroke:none"
     d="m 7.4741768,30.833486 a 22.5,22.602667 29.999972 0 1 3.0276872,-12.062507 22.5,22.602667 29.999972 0 1 30.786904,-8.324484 22.5,22.602667 29.999972 0 1 8.184239,30.824484 22.5,22.602667 29.999972 0 1 -8.93809,8.657426" /><path
     id="path10-2"
     style="font-variation-settings:normal;display:inline;vector-effect:none;fill:url(#linearGradient12);fill-opacity:1;stroke:none;stroke-width:1;stroke-linecap:butt;stroke-linejoin:miter;stroke-miterlimit:4;stroke-dasharray:none;stroke-dashoffset:0;stroke-opacity:0.4;-inkscape-stroke:none;stop-color:#000000"
     d="M 17.268053,48.622596 22.52069,39.524761 7.472618,30.832586 a 22.5,22.55125 29.999945 0 0 9.795435,17.79001 z" /><path
     id="path11-9"
     style="font-variation-settings:normal;display:inline;vector-effect:none;fill:url(#linearGradient13);fill-opacity:1;stroke:none;stroke-width:1;stroke-linecap:butt;stroke-linejoin:miter;stroke-miterlimit:4;stroke-dasharray:none;stroke-dashoffset:0;stroke-opacity:0.4;-inkscape-stroke:none;stop-color:#000000"
     d="m 20.230149,50.341095 5.253088,-9.098616 15.05168,8.685926 A 22.5,22.55125 29.999945 0 1 20.2306,50.340314 Z" /><path
     style="display:inline;fill:url(#linearGradient17);fill-opacity:1;stroke:none;stroke-width:1;stroke-opacity:0.4;-inkscape-stroke:none"
     id="rect11-3"
     d="m 20.230149,50.341095 -2.965704,-1.71225 5.256245,-9.104084 2.965704,1.71225 z" /><path
     id="path34-0"
     style="display:inline;fill:#c8c8c8;fill-opacity:1;stroke:none;stroke-width:0.901023;stroke-dasharray:none;stroke-opacity:1"
     d="m 18.221848,51.261555 2.728534,-1.150009 a 22.049286,22.099437 29.99999 0 1 -2.001572,-0.972533 22.049286,22.099437 29.99999 0 1 -1.182955,-0.73915 z m -0.455993,-2.861692 -0.102281,-0.639485 -0.639017,0.12828 a 22.049286,22.099437 29.99999 0 0 0.742855,0.512104 z M 17.022999,47.887759 A 22.049286,22.099437 29.99999 0 1 14.31397,45.553951 l -0.127414,2.897253 z m -2.709029,-2.333808 0.02788,-0.645474 -0.648592,-0.0062 a 22.049286,22.099437 29.99999 0 0 0.620715,0.651707 z m -0.621615,-0.650147 a 22.049286,22.099437 29.99999 0 1 -2.184619,-2.831995 l -0.709981,2.812638 z m -2.184619,-2.831995 0.15657,-0.627343 -0.628737,-0.134157 a 22.049286,22.099437 29.99999 0 0 0.473725,0.7624 z M 11.033111,41.31097 A 22.049286,22.099437 29.99999 0 1 9.4604964,38.091692 L 8.1997778,40.707025 Z M 9.4604964,38.091692 9.7391358,37.511941 9.1541074,37.25531 a 22.049286,22.099437 29.99999 0 0 0.3072898,0.834822 z M 9.1541074,37.25531 A 22.049286,22.099437 29.99999 0 1 8.2566732,33.776762 L 6.4941811,36.091993 Z M 8.2566732,33.776762 8.6454271,33.268907 8.1290318,32.904193 a 22.049286,22.099437 29.99999 0 0 0.1276414,0.872569 z M 8.1290318,32.904193 A 22.049286,22.099437 29.99999 0 1 7.9473388,29.308375 L 5.7527761,31.224361 Z M 7.9473388,29.308375 8.4249057,28.891324 7.9978075,28.436698 a 22.049286,22.099437 29.99999 0 0 -0.050469,0.871677 z m 0.05137,-0.873237 a 22.049286,22.099437 29.99999 0 1 0.5576427,-3.57048 L 6.0053333,26.304392 Z M 8.5563511,24.864658 9.0915949,24.559962 8.7719995,24.034257 A 22.049286,22.099437 29.99999 0 0 8.5563511,24.864658 Z M 8.7719995,24.034257 A 22.049286,22.099437 29.99999 0 1 10.044132,20.63288 l -2.8007021,0.904464 z m 1.2721325,-3.401377 0.57145,-0.183933 -0.204866,-0.569727 a 22.049286,22.099437 29.99999 0 0 -0.366584,0.75366 z m 0.366584,-0.75366 a 22.049286,22.099437 29.99999 0 1 0.492571,-0.903524 22.049286,22.099437 29.99999 0 1 1.478138,-2.186067 l -2.9686891,0.324823 z m 1.970709,-3.089591 0.554298,-0.06069 -0.08167,-0.567254 a 22.049286,22.099437 29.99999 0 0 -0.472626,0.627943 z m 0.472626,-0.627943 a 22.049286,22.099437 29.99999 0 1 2.575167,-2.661552 l -3.003742,-0.280009 z m 2.575167,-2.661552 0.525829,0.04978 0.02983,-0.504958 a 22.049286,22.099437 29.99999 0 0 -0.554102,0.456079 z m 0.554103,-0.45608 A 22.049286,22.099437 29.99999 0 1 19.0643,10.895056 l -2.901749,-0.884772 z m 3.080979,-2.148998 0.486043,0.147472 0.143584,-0.532901 A 22.049286,22.099437 29.99999 0 0 19.0643,10.895056 Z m 0.629627,-0.385429 A 22.049286,22.099437 29.99999 0 1 23.102782,9.0554659 L 20.46526,7.6159076 Z m 3.408855,-1.4541611 0.471425,0.2555339 0.223708,-0.4450337 A 22.049286,22.099437 29.99999 0 0 23.103683,9.0539056 Z M 23.797014,8.8675264 A 22.049286,22.099437 29.99999 0 1 27.496208,8.1156569 L 25.160542,6.1388775 Z m 3.699194,-0.7518695 0.368013,0.3123318 0.309142,-0.3915476 a 22.049286,22.099437 29.99999 0 0 -0.677155,0.079216 z m 0.675597,-0.080115 a 22.049286,22.099437 29.99999 0 1 3.74324,-0.029505 L 30.054581,5.6378866 Z m 3.74324,-0.029505 0.329296,0.4189637 0.386712,-0.3280388 a 22.049286,22.099437 29.99999 0 0 -0.716008,-0.090925 z m 0.716008,0.090925 A 22.049286,22.099437 29.99999 0 1 36.321664,8.881716 L 34.949522,6.1318496 Z m 3.690611,0.7847542 0.209874,0.4207492 0.409386,-0.2234102 a 22.049286,22.099437 29.99999 0 0 -0.61926,-0.197339 z m 0.61926,0.197339 a 22.049286,22.099437 29.99999 0 1 3.491045,1.4829719 L 39.643232,7.603924 Z m 3.491045,1.4829719 0.124818,0.467341 0.507695,-0.15625 a 22.049286,22.099437 29.99999 0 0 -0.01468,-0.01055 22.049286,22.099437 29.99999 0 0 -0.616278,-0.299637 z m 0.632513,0.311091 a 22.049286,22.099437 29.99999 0 1 3.05558,2.17606 L 43.944536,9.9895042 Z m 3.05558,2.17606 0.02721,0.481718 0.453326,-0.04409 A 22.049286,22.099437 29.99999 0 0 44.120067,13.04918 Z m 0.480531,0.437626 a 22.049286,22.099437 29.99999 0 1 2.628016,2.765528 L 47.676918,13.195 Z m 2.628016,2.765528 -0.06683,0.450314 0.480505,0.05273 a 22.049286,22.099437 29.99999 0 0 -0.414581,-0.501489 z m 0.41368,0.503049 a 22.049286,22.099437 29.99999 0 1 2.010287,3.180713 l 1.032249,-2.84918 z m 2.010287,3.180713 -0.176148,0.484974 0.442763,0.143288 a 22.049286,22.099437 29.99999 0 0 -0.266615,-0.628262 z m 0.266615,0.628262 a 22.049286,22.099437 29.99999 0 1 1.309361,3.585309 l 1.619547,-2.643249 z m 1.309361,3.585309 -0.234313,0.380659 0.394361,0.223524 a 22.049286,22.099437 29.99999 0 0 -0.161606,-0.605083 z m 0.160048,0.604183 a 22.049286,22.099437 29.99999 0 1 0.598726,3.751295 l 2.091293,-2.233579 z m 0.598726,3.751295 -0.331289,0.357957 0.372855,0.32553 a 22.049286,22.099437 29.99999 0 0 -0.04157,-0.683487 z m 0.04157,0.683487 a 22.049286,22.099437 29.99999 0 1 -0.218122,3.781065 l 2.512818,-1.780091 z m -0.218122,3.781065 -0.382396,0.270199 0.273366,0.357546 a 22.049286,22.099437 29.99999 0 0 0.10903,-0.627745 z m -0.10903,0.627745 a 22.049286,22.099437 29.99999 0 1 -0.940192,3.697043 l 2.816029,-1.236801 z m -0.940192,3.697043 -0.43219,0.18736 0.223501,0.461903 a 22.049286,22.099437 29.99999 0 0 0.208689,-0.649263 z m -0.208689,0.649263 a 22.049286,22.099437 29.99999 0 1 -1.457531,3.082135 22.049286,22.099437 29.99999 0 1 -0.192969,0.283866 l 2.96247,-0.634231 z m -1.6505,3.366001 -0.505669,0.10957 0.116785,0.466864 a 22.049286,22.099437 29.99999 0 0 0.388884,-0.576434 z m -0.388884,0.576434 a 22.049286,22.099437 29.99999 0 1 -2.315746,2.996484 l 3.061786,-0.02558 z m -2.315746,2.996484 -0.483918,0.0035 0.02107,0.503139 a 22.049286,22.099437 29.99999 0 0 0.46285,-0.506683 z m -0.46285,0.506683 a 22.049286,22.099437 29.99999 0 1 -2.800014,2.461003 l 2.931678,0.577509 z m -2.800014,2.461003 -0.544955,-0.106589 -0.08507,0.525078 a 22.049286,22.099437 29.99999 0 0 0.63002,-0.418489 z m -0.63002,0.418489 a 22.049286,22.099437 29.99999 0 1 -3.265816,1.807197 l 2.786236,1.167589 z m -3.265816,1.807197 -0.479513,-0.201952 -0.182623,0.485397 a 22.049286,22.099437 29.99999 0 0 0.662136,-0.283445 z m -0.662136,0.283445 a 22.049286,22.099437 29.99999 0 1 -3.539826,1.141379 l 2.466831,1.688437 z m -3.539826,1.141379 -0.45506,-0.312659 -0.321789,0.50699 a 22.049286,22.099437 29.99999 0 0 0.776849,-0.194331 z m -0.77775,0.195891 a 22.049286,22.099437 29.99999 0 1 -3.63554,0.353816 l 2.058538,2.133001 z m -3.63554,0.353816 -0.39872,-0.417438 -0.383727,0.398416 a 22.049286,22.099437 29.99999 0 0 0.782447,0.01902 z m -0.782447,-0.01902 a 22.049286,22.099437 29.99999 0 1 -3.67114,-0.361592 l 1.590956,2.518369 z m -3.67114,-0.361592 -0.30244,-0.476273 -0.499733,0.343922 a 22.049286,22.099437 29.99999 0 0 0.802173,0.132351 z m -0.802173,-0.132351 a 22.049286,22.099437 29.99999 0 1 -3.452636,-1.053038 l 1.028364,2.715738 z m -3.452636,-1.053038 -0.224799,-0.599959 -0.541101,0.2285 a 22.049286,22.099437 29.99999 0 0 0.7659,0.371459 z" /><path
     style="color:#000000;fill:#b4b4b4;-inkscape-stroke:none"
     d="m -40.980469,-33.582031 c -12.448701,0 -22.550781,10.124398 -22.550781,22.599609 0,12.4752111 10.10208,22.601563 22.550781,22.601563 12.448702,0 22.550781,-10.1263519 22.550782,-22.601563 0,-12.475211 -10.10208,-22.599609 -22.550782,-22.599609 z m 0,1 c 11.907031,0 21.550782,9.66361 21.550782,21.599609 0,11.93599973 -9.643751,21.601563 -21.550782,21.601563 -11.907031,0 -21.550781,-9.66556327 -21.550781,-21.601563 0,-11.935999 9.64375,-21.599609 21.550781,-21.599609 z"
     id="circle33"
     transform="rotate(-150)" /><script
     id="mesh_polyfill"
     type="text/javascript">!function(){const t=&quot;http://www.w3.org/2000/svg&quot;,e=&quot;http://www.w3.org/1999/xlink&quot;,s=&quot;http://www.w3.org/1999/xhtml&quot;,r=2;if(document.createElementNS(t,&quot;meshgradient&quot;).x)return;const n=(t,e,s,r)=&gt;{let n=new x(.5*(e.x+s.x),.5*(e.y+s.y)),o=new x(.5*(t.x+e.x),.5*(t.y+e.y)),i=new x(.5*(s.x+r.x),.5*(s.y+r.y)),a=new x(.5*(n.x+o.x),.5*(n.y+o.y)),h=new x(.5*(n.x+i.x),.5*(n.y+i.y)),l=new x(.5*(a.x+h.x),.5*(a.y+h.y));return[[t,o,a,l],[l,h,i,r]]},o=t=&gt;{let e=t[0].distSquared(t[1]),s=t[2].distSquared(t[3]),r=.25*t[0].distSquared(t[2]),n=.25*t[1].distSquared(t[3]),o=e&gt;s?e:s,i=r&gt;n?r:n;return 18*(o&gt;i?o:i)},i=(t,e)=&gt;Math.sqrt(t.distSquared(e)),a=(t,e)=&gt;t.scale(2/3).add(e.scale(1/3)),h=t=&gt;{let e,s,r,n,o,i,a,h=new g;return t.match(/(\w+\(\s*[^)]+\))+/g).forEach(t=&gt;{let l=t.match(/[\w.-]+/g),d=l.shift();switch(d){case&quot;translate&quot;:2===l.length?e=new g(1,0,0,1,l[0],l[1]):(console.error(&quot;mesh.js: translate does not have 2 arguments!&quot;),e=new g(1,0,0,1,0,0)),h=h.append(e);break;case&quot;scale&quot;:1===l.length?s=new g(l[0],0,0,l[0],0,0):2===l.length?s=new g(l[0],0,0,l[1],0,0):(console.error(&quot;mesh.js: scale does not have 1 or 2 arguments!&quot;),s=new g(1,0,0,1,0,0)),h=h.append(s);break;case&quot;rotate&quot;:if(3===l.length&amp;&amp;(e=new g(1,0,0,1,l[1],l[2]),h=h.append(e)),l[0]){r=l[0]*Math.PI/180;let t=Math.cos(r),e=Math.sin(r);Math.abs(t)&lt;1e-16&amp;&amp;(t=0),Math.abs(e)&lt;1e-16&amp;&amp;(e=0),a=new g(t,e,-e,t,0,0),h=h.append(a)}else console.error(&quot;math.js: No argument to rotate transform!&quot;);3===l.length&amp;&amp;(e=new g(1,0,0,1,-l[1],-l[2]),h=h.append(e));break;case&quot;skewX&quot;:l[0]?(r=l[0]*Math.PI/180,n=Math.tan(r),o=new g(1,0,n,1,0,0),h=h.append(o)):console.error(&quot;math.js: No argument to skewX transform!&quot;);break;case&quot;skewY&quot;:l[0]?(r=l[0]*Math.PI/180,n=Math.tan(r),i=new g(1,n,0,1,0,0),h=h.append(i)):console.error(&quot;math.js: No argument to skewY transform!&quot;);break;case&quot;matrix&quot;:6===l.length?h=h.append(new g(...l)):console.error(&quot;math.js: Incorrect number of arguments for matrix!&quot;);break;default:console.error(&quot;mesh.js: Unhandled transform type: &quot;+d)}}),h},l=t=&gt;{let e=[],s=t.split(/[ ,]+/);for(let t=0,r=s.length-1;t&lt;r;t+=2)e.push(new x(parseFloat(s[t]),parseFloat(s[t+1])));return e},d=(t,e)=&gt;{for(let s in e)t.setAttribute(s,e[s])},c=(t,e,s,r,n)=&gt;{let o,i,a=[0,0,0,0];for(let h=0;h&lt;3;++h)e[h]&lt;t[h]&amp;&amp;e[h]&lt;s[h]||t[h]&lt;e[h]&amp;&amp;s[h]&lt;e[h]?a[h]=0:(a[h]=.5*((e[h]-t[h])/r+(s[h]-e[h])/n),o=Math.abs(3*(e[h]-t[h])/r),i=Math.abs(3*(s[h]-e[h])/n),a[h]&gt;o?a[h]=o:a[h]&gt;i&amp;&amp;(a[h]=i));return a},u=[[1,0,0,0,0,0,0,0,0,0,0,0,0,0,0,0],[0,0,0,0,1,0,0,0,0,0,0,0,0,0,0,0],[-3,3,0,0,-2,-1,0,0,0,0,0,0,0,0,0,0],[2,-2,0,0,1,1,0,0,0,0,0,0,0,0,0,0],[0,0,0,0,0,0,0,0,1,0,0,0,0,0,0,0],[0,0,0,0,0,0,0,0,0,0,0,0,1,0,0,0],[0,0,0,0,0,0,0,0,-3,3,0,0,-2,-1,0,0],[0,0,0,0,0,0,0,0,2,-2,0,0,1,1,0,0],[-3,0,3,0,0,0,0,0,-2,0,-1,0,0,0,0,0],[0,0,0,0,-3,0,3,0,0,0,0,0,-2,0,-1,0],[9,-9,-9,9,6,3,-6,-3,6,-6,3,-3,4,2,2,1],[-6,6,6,-6,-3,-3,3,3,-4,4,-2,2,-2,-2,-1,-1],[2,0,-2,0,0,0,0,0,1,0,1,0,0,0,0,0],[0,0,0,0,2,0,-2,0,0,0,0,0,1,0,1,0],[-6,6,6,-6,-4,-2,4,2,-3,3,-3,3,-2,-1,-2,-1],[4,-4,-4,4,2,2,-2,-2,2,-2,2,-2,1,1,1,1]],f=t=&gt;{let e=[];for(let s=0;s&lt;16;++s){e[s]=0;for(let r=0;r&lt;16;++r)e[s]+=u[s][r]*t[r]}return e},p=(t,e,s)=&gt;{const r=e*e,n=s*s,o=e*e*e,i=s*s*s;return t[0]+t[1]*e+t[2]*r+t[3]*o+t[4]*s+t[5]*s*e+t[6]*s*r+t[7]*s*o+t[8]*n+t[9]*n*e+t[10]*n*r+t[11]*n*o+t[12]*i+t[13]*i*e+t[14]*i*r+t[15]*i*o},y=t=&gt;{let e=[],s=[],r=[];for(let s=0;s&lt;4;++s)e[s]=[],e[s][0]=n(t[0][s],t[1][s],t[2][s],t[3][s]),e[s][1]=[],e[s][1].push(...n(...e[s][0][0])),e[s][1].push(...n(...e[s][0][1])),e[s][2]=[],e[s][2].push(...n(...e[s][1][0])),e[s][2].push(...n(...e[s][1][1])),e[s][2].push(...n(...e[s][1][2])),e[s][2].push(...n(...e[s][1][3]));for(let t=0;t&lt;8;++t){s[t]=[];for(let r=0;r&lt;4;++r)s[t][r]=[],s[t][r][0]=n(e[0][2][t][r],e[1][2][t][r],e[2][2][t][r],e[3][2][t][r]),s[t][r][1]=[],s[t][r][1].push(...n(...s[t][r][0][0])),s[t][r][1].push(...n(...s[t][r][0][1])),s[t][r][2]=[],s[t][r][2].push(...n(...s[t][r][1][0])),s[t][r][2].push(...n(...s[t][r][1][1])),s[t][r][2].push(...n(...s[t][r][1][2])),s[t][r][2].push(...n(...s[t][r][1][3]))}for(let t=0;t&lt;8;++t){r[t]=[];for(let e=0;e&lt;8;++e)r[t][e]=[],r[t][e][0]=s[t][0][2][e],r[t][e][1]=s[t][1][2][e],r[t][e][2]=s[t][2][2][e],r[t][e][3]=s[t][3][2][e]}return r};class x{constructor(t,e){this.x=t||0,this.y=e||0}toString(){return`(x=${this.x}, y=${this.y})`}clone(){return new x(this.x,this.y)}add(t){return new x(this.x+t.x,this.y+t.y)}scale(t){return void 0===t.x?new x(this.x*t,this.y*t):new x(this.x*t.x,this.y*t.y)}distSquared(t){let e=this.x-t.x,s=this.y-t.y;return e*e+s*s}transform(t){let e=this.x*t.a+this.y*t.c+t.e,s=this.x*t.b+this.y*t.d+t.f;return new x(e,s)}}class g{constructor(t,e,s,r,n,o){void 0===t?(this.a=1,this.b=0,this.c=0,this.d=1,this.e=0,this.f=0):(this.a=t,this.b=e,this.c=s,this.d=r,this.e=n,this.f=o)}toString(){return`affine: ${this.a} ${this.c} ${this.e} \n       ${this.b} ${this.d} ${this.f}`}append(t){t instanceof g||console.error(&quot;mesh.js: argument to Affine.append is not affine!&quot;);let e=this.a*t.a+this.c*t.b,s=this.b*t.a+this.d*t.b,r=this.a*t.c+this.c*t.d,n=this.b*t.c+this.d*t.d,o=this.a*t.e+this.c*t.f+this.e,i=this.b*t.e+this.d*t.f+this.f;return new g(e,s,r,n,o,i)}}class w{constructor(t,e){this.nodes=t,this.colors=e}paintCurve(t,e){if(o(this.nodes)&gt;r){const s=n(...this.nodes);let r=[[],[]],o=[[],[]];for(let t=0;t&lt;4;++t)r[0][t]=this.colors[0][t],r[1][t]=(this.colors[0][t]+this.colors[1][t])/2,o[0][t]=r[1][t],o[1][t]=this.colors[1][t];let i=new w(s[0],r),a=new w(s[1],o);i.paintCurve(t,e),a.paintCurve(t,e)}else{let s=Math.round(this.nodes[0].x);if(s&gt;=0&amp;&amp;s&lt;e){let r=4*(~~this.nodes[0].y*e+s);t[r]=Math.round(this.colors[0][0]),t[r+1]=Math.round(this.colors[0][1]),t[r+2]=Math.round(this.colors[0][2]),t[r+3]=Math.round(this.colors[0][3])}}}}class m{constructor(t,e){this.nodes=t,this.colors=e}split(){let t=[[],[],[],[]],e=[[],[],[],[]],s=[[[],[]],[[],[]]],r=[[[],[]],[[],[]]];for(let s=0;s&lt;4;++s){const r=n(this.nodes[0][s],this.nodes[1][s],this.nodes[2][s],this.nodes[3][s]);t[0][s]=r[0][0],t[1][s]=r[0][1],t[2][s]=r[0][2],t[3][s]=r[0][3],e[0][s]=r[1][0],e[1][s]=r[1][1],e[2][s]=r[1][2],e[3][s]=r[1][3]}for(let t=0;t&lt;4;++t)s[0][0][t]=this.colors[0][0][t],s[0][1][t]=this.colors[0][1][t],s[1][0][t]=(this.colors[0][0][t]+this.colors[1][0][t])/2,s[1][1][t]=(this.colors[0][1][t]+this.colors[1][1][t])/2,r[0][0][t]=s[1][0][t],r[0][1][t]=s[1][1][t],r[1][0][t]=this.colors[1][0][t],r[1][1][t]=this.colors[1][1][t];return[new m(t,s),new m(e,r)]}paint(t,e){let s,n=!1;for(let t=0;t&lt;4;++t)if((s=o([this.nodes[0][t],this.nodes[1][t],this.nodes[2][t],this.nodes[3][t]]))&gt;r){n=!0;break}if(n){let s=this.split();s[0].paint(t,e),s[1].paint(t,e)}else{new w([...this.nodes[0]],[...this.colors[0]]).paintCurve(t,e)}}}class b{constructor(t){this.readMesh(t),this.type=t.getAttribute(&quot;type&quot;)||&quot;bilinear&quot;}readMesh(t){let e=[[]],s=[[]],r=Number(t.getAttribute(&quot;x&quot;)),n=Number(t.getAttribute(&quot;y&quot;));e[0][0]=new x(r,n);let o=t.children;for(let t=0,r=o.length;t&lt;r;++t){e[3*t+1]=[],e[3*t+2]=[],e[3*t+3]=[],s[t+1]=[];let r=o[t].children;for(let n=0,o=r.length;n&lt;o;++n){let o=r[n].children;for(let r=0,i=o.length;r&lt;i;++r){let i=r;0!==t&amp;&amp;++i;let h,d=o[r].getAttribute(&quot;path&quot;),c=&quot;l&quot;;null!=d&amp;&amp;(c=(h=d.match(/\s*([lLcC])\s*(.*)/))[1]);let u=l(h[2]);switch(c){case&quot;l&quot;:0===i?(e[3*t][3*n+3]=u[0].add(e[3*t][3*n]),e[3*t][3*n+1]=a(e[3*t][3*n],e[3*t][3*n+3]),e[3*t][3*n+2]=a(e[3*t][3*n+3],e[3*t][3*n])):1===i?(e[3*t+3][3*n+3]=u[0].add(e[3*t][3*n+3]),e[3*t+1][3*n+3]=a(e[3*t][3*n+3],e[3*t+3][3*n+3]),e[3*t+2][3*n+3]=a(e[3*t+3][3*n+3],e[3*t][3*n+3])):2===i?(0===n&amp;&amp;(e[3*t+3][3*n+0]=u[0].add(e[3*t+3][3*n+3])),e[3*t+3][3*n+1]=a(e[3*t+3][3*n],e[3*t+3][3*n+3]),e[3*t+3][3*n+2]=a(e[3*t+3][3*n+3],e[3*t+3][3*n])):(e[3*t+1][3*n]=a(e[3*t][3*n],e[3*t+3][3*n]),e[3*t+2][3*n]=a(e[3*t+3][3*n],e[3*t][3*n]));break;case&quot;L&quot;:0===i?(e[3*t][3*n+3]=u[0],e[3*t][3*n+1]=a(e[3*t][3*n],e[3*t][3*n+3]),e[3*t][3*n+2]=a(e[3*t][3*n+3],e[3*t][3*n])):1===i?(e[3*t+3][3*n+3]=u[0],e[3*t+1][3*n+3]=a(e[3*t][3*n+3],e[3*t+3][3*n+3]),e[3*t+2][3*n+3]=a(e[3*t+3][3*n+3],e[3*t][3*n+3])):2===i?(0===n&amp;&amp;(e[3*t+3][3*n+0]=u[0]),e[3*t+3][3*n+1]=a(e[3*t+3][3*n],e[3*t+3][3*n+3]),e[3*t+3][3*n+2]=a(e[3*t+3][3*n+3],e[3*t+3][3*n])):(e[3*t+1][3*n]=a(e[3*t][3*n],e[3*t+3][3*n]),e[3*t+2][3*n]=a(e[3*t+3][3*n],e[3*t][3*n]));break;case&quot;c&quot;:0===i?(e[3*t][3*n+1]=u[0].add(e[3*t][3*n]),e[3*t][3*n+2]=u[1].add(e[3*t][3*n]),e[3*t][3*n+3]=u[2].add(e[3*t][3*n])):1===i?(e[3*t+1][3*n+3]=u[0].add(e[3*t][3*n+3]),e[3*t+2][3*n+3]=u[1].add(e[3*t][3*n+3]),e[3*t+3][3*n+3]=u[2].add(e[3*t][3*n+3])):2===i?(e[3*t+3][3*n+2]=u[0].add(e[3*t+3][3*n+3]),e[3*t+3][3*n+1]=u[1].add(e[3*t+3][3*n+3]),0===n&amp;&amp;(e[3*t+3][3*n+0]=u[2].add(e[3*t+3][3*n+3]))):(e[3*t+2][3*n]=u[0].add(e[3*t+3][3*n]),e[3*t+1][3*n]=u[1].add(e[3*t+3][3*n]));break;case&quot;C&quot;:0===i?(e[3*t][3*n+1]=u[0],e[3*t][3*n+2]=u[1],e[3*t][3*n+3]=u[2]):1===i?(e[3*t+1][3*n+3]=u[0],e[3*t+2][3*n+3]=u[1],e[3*t+3][3*n+3]=u[2]):2===i?(e[3*t+3][3*n+2]=u[0],e[3*t+3][3*n+1]=u[1],0===n&amp;&amp;(e[3*t+3][3*n+0]=u[2])):(e[3*t+2][3*n]=u[0],e[3*t+1][3*n]=u[1]);break;default:console.error(&quot;mesh.js: &quot;+c+&quot; invalid path type.&quot;)}if(0===t&amp;&amp;0===n||r&gt;0){let e=window.getComputedStyle(o[r]).stopColor.match(/^rgb\s*\(\s*(\d+)\s*,\s*(\d+)\s*,\s*(\d+)\s*\)$/i),a=window.getComputedStyle(o[r]).stopOpacity,h=255;a&amp;&amp;(h=Math.floor(255*a)),e&amp;&amp;(0===i?(s[t][n]=[],s[t][n][0]=Math.floor(e[1]),s[t][n][1]=Math.floor(e[2]),s[t][n][2]=Math.floor(e[3]),s[t][n][3]=h):1===i?(s[t][n+1]=[],s[t][n+1][0]=Math.floor(e[1]),s[t][n+1][1]=Math.floor(e[2]),s[t][n+1][2]=Math.floor(e[3]),s[t][n+1][3]=h):2===i?(s[t+1][n+1]=[],s[t+1][n+1][0]=Math.floor(e[1]),s[t+1][n+1][1]=Math.floor(e[2]),s[t+1][n+1][2]=Math.floor(e[3]),s[t+1][n+1][3]=h):3===i&amp;&amp;(s[t+1][n]=[],s[t+1][n][0]=Math.floor(e[1]),s[t+1][n][1]=Math.floor(e[2]),s[t+1][n][2]=Math.floor(e[3]),s[t+1][n][3]=h))}}e[3*t+1][3*n+1]=new x,e[3*t+1][3*n+2]=new x,e[3*t+2][3*n+1]=new x,e[3*t+2][3*n+2]=new x,e[3*t+1][3*n+1].x=(-4*e[3*t][3*n].x+6*(e[3*t][3*n+1].x+e[3*t+1][3*n].x)+-2*(e[3*t][3*n+3].x+e[3*t+3][3*n].x)+3*(e[3*t+3][3*n+1].x+e[3*t+1][3*n+3].x)+-1*e[3*t+3][3*n+3].x)/9,e[3*t+1][3*n+2].x=(-4*e[3*t][3*n+3].x+6*(e[3*t][3*n+2].x+e[3*t+1][3*n+3].x)+-2*(e[3*t][3*n].x+e[3*t+3][3*n+3].x)+3*(e[3*t+3][3*n+2].x+e[3*t+1][3*n].x)+-1*e[3*t+3][3*n].x)/9,e[3*t+2][3*n+1].x=(-4*e[3*t+3][3*n].x+6*(e[3*t+3][3*n+1].x+e[3*t+2][3*n].x)+-2*(e[3*t+3][3*n+3].x+e[3*t][3*n].x)+3*(e[3*t][3*n+1].x+e[3*t+2][3*n+3].x)+-1*e[3*t][3*n+3].x)/9,e[3*t+2][3*n+2].x=(-4*e[3*t+3][3*n+3].x+6*(e[3*t+3][3*n+2].x+e[3*t+2][3*n+3].x)+-2*(e[3*t+3][3*n].x+e[3*t][3*n+3].x)+3*(e[3*t][3*n+2].x+e[3*t+2][3*n].x)+-1*e[3*t][3*n].x)/9,e[3*t+1][3*n+1].y=(-4*e[3*t][3*n].y+6*(e[3*t][3*n+1].y+e[3*t+1][3*n].y)+-2*(e[3*t][3*n+3].y+e[3*t+3][3*n].y)+3*(e[3*t+3][3*n+1].y+e[3*t+1][3*n+3].y)+-1*e[3*t+3][3*n+3].y)/9,e[3*t+1][3*n+2].y=(-4*e[3*t][3*n+3].y+6*(e[3*t][3*n+2].y+e[3*t+1][3*n+3].y)+-2*(e[3*t][3*n].y+e[3*t+3][3*n+3].y)+3*(e[3*t+3][3*n+2].y+e[3*t+1][3*n].y)+-1*e[3*t+3][3*n].y)/9,e[3*t+2][3*n+1].y=(-4*e[3*t+3][3*n].y+6*(e[3*t+3][3*n+1].y+e[3*t+2][3*n].y)+-2*(e[3*t+3][3*n+3].y+e[3*t][3*n].y)+3*(e[3*t][3*n+1].y+e[3*t+2][3*n+3].y)+-1*e[3*t][3*n+3].y)/9,e[3*t+2][3*n+2].y=(-4*e[3*t+3][3*n+3].y+6*(e[3*t+3][3*n+2].y+e[3*t+2][3*n+3].y)+-2*(e[3*t+3][3*n].y+e[3*t][3*n+3].y)+3*(e[3*t][3*n+2].y+e[3*t+2][3*n].y)+-1*e[3*t][3*n].y)/9}}this.nodes=e,this.colors=s}paintMesh(t,e){let s=(this.nodes.length-1)/3,r=(this.nodes[0].length-1)/3;if(&quot;bilinear&quot;===this.type||s&lt;2||r&lt;2){let n;for(let o=0;o&lt;s;++o)for(let s=0;s&lt;r;++s){let r=[];for(let t=3*o,e=3*o+4;t&lt;e;++t)r.push(this.nodes[t].slice(3*s,3*s+4));let i=[];i.push(this.colors[o].slice(s,s+2)),i.push(this.colors[o+1].slice(s,s+2)),(n=new m(r,i)).paint(t,e)}}else{let n,o,a,h,l,d,u;const x=s,g=r;s++,r++;let w=new Array(s);for(let t=0;t&lt;s;++t){w[t]=new Array(r);for(let e=0;e&lt;r;++e)w[t][e]=[],w[t][e][0]=this.nodes[3*t][3*e],w[t][e][1]=this.colors[t][e]}for(let t=0;t&lt;s;++t)for(let e=0;e&lt;r;++e)0!==t&amp;&amp;t!==x&amp;&amp;(n=i(w[t-1][e][0],w[t][e][0]),o=i(w[t+1][e][0],w[t][e][0]),w[t][e][2]=c(w[t-1][e][1],w[t][e][1],w[t+1][e][1],n,o)),0!==e&amp;&amp;e!==g&amp;&amp;(n=i(w[t][e-1][0],w[t][e][0]),o=i(w[t][e+1][0],w[t][e][0]),w[t][e][3]=c(w[t][e-1][1],w[t][e][1],w[t][e+1][1],n,o));for(let t=0;t&lt;r;++t){w[0][t][2]=[],w[x][t][2]=[];for(let e=0;e&lt;4;++e)n=i(w[1][t][0],w[0][t][0]),o=i(w[x][t][0],w[x-1][t][0]),w[0][t][2][e]=n&gt;0?2*(w[1][t][1][e]-w[0][t][1][e])/n-w[1][t][2][e]:0,w[x][t][2][e]=o&gt;0?2*(w[x][t][1][e]-w[x-1][t][1][e])/o-w[x-1][t][2][e]:0}for(let t=0;t&lt;s;++t){w[t][0][3]=[],w[t][g][3]=[];for(let e=0;e&lt;4;++e)n=i(w[t][1][0],w[t][0][0]),o=i(w[t][g][0],w[t][g-1][0]),w[t][0][3][e]=n&gt;0?2*(w[t][1][1][e]-w[t][0][1][e])/n-w[t][1][3][e]:0,w[t][g][3][e]=o&gt;0?2*(w[t][g][1][e]-w[t][g-1][1][e])/o-w[t][g-1][3][e]:0}for(let s=0;s&lt;x;++s)for(let r=0;r&lt;g;++r){let n=i(w[s][r][0],w[s+1][r][0]),o=i(w[s][r+1][0],w[s+1][r+1][0]),c=i(w[s][r][0],w[s][r+1][0]),x=i(w[s+1][r][0],w[s+1][r+1][0]),g=[[],[],[],[]];for(let t=0;t&lt;4;++t){(d=[])[0]=w[s][r][1][t],d[1]=w[s+1][r][1][t],d[2]=w[s][r+1][1][t],d[3]=w[s+1][r+1][1][t],d[4]=w[s][r][2][t]*n,d[5]=w[s+1][r][2][t]*n,d[6]=w[s][r+1][2][t]*o,d[7]=w[s+1][r+1][2][t]*o,d[8]=w[s][r][3][t]*c,d[9]=w[s+1][r][3][t]*x,d[10]=w[s][r+1][3][t]*c,d[11]=w[s+1][r+1][3][t]*x,d[12]=0,d[13]=0,d[14]=0,d[15]=0,u=f(d);for(let e=0;e&lt;9;++e){g[t][e]=[];for(let s=0;s&lt;9;++s)g[t][e][s]=p(u,e/8,s/8),g[t][e][s]&gt;255?g[t][e][s]=255:g[t][e][s]&lt;0&amp;&amp;(g[t][e][s]=0)}}h=[];for(let t=3*s,e=3*s+4;t&lt;e;++t)h.push(this.nodes[t].slice(3*r,3*r+4));l=y(h);for(let s=0;s&lt;8;++s)for(let r=0;r&lt;8;++r)(a=new m(l[s][r],[[[g[0][s][r],g[1][s][r],g[2][s][r],g[3][s][r]],[g[0][s][r+1],g[1][s][r+1],g[2][s][r+1],g[3][s][r+1]]],[[g[0][s+1][r],g[1][s+1][r],g[2][s+1][r],g[3][s+1][r]],[g[0][s+1][r+1],g[1][s+1][r+1],g[2][s+1][r+1],g[3][s+1][r+1]]]])).paint(t,e)}}}transform(t){if(t instanceof x)for(let e=0,s=this.nodes.length;e&lt;s;++e)for(let s=0,r=this.nodes[0].length;s&lt;r;++s)this.nodes[e][s]=this.nodes[e][s].add(t);else if(t instanceof g)for(let e=0,s=this.nodes.length;e&lt;s;++e)for(let s=0,r=this.nodes[0].length;s&lt;r;++s)this.nodes[e][s]=this.nodes[e][s].transform(t)}scale(t){for(let e=0,s=this.nodes.length;e&lt;s;++e)for(let s=0,r=this.nodes[0].length;s&lt;r;++s)this.nodes[e][s]=this.nodes[e][s].scale(t)}}document.querySelectorAll(&quot;rect,circle,ellipse,path,text&quot;).forEach((r,n)=&gt;{let o=r.getAttribute(&quot;id&quot;);o||(o=&quot;patchjs_shape&quot;+n,r.setAttribute(&quot;id&quot;,o));const i=r.style.fill.match(/^url\(\s*&quot;?\s*#([^\s&quot;]+)&quot;?\s*\)/),a=r.style.stroke.match(/^url\(\s*&quot;?\s*#([^\s&quot;]+)&quot;?\s*\)/);if(i&amp;&amp;i[1]){const a=document.getElementById(i[1]);if(a&amp;&amp;&quot;meshgradient&quot;===a.nodeName){const i=r.getBBox();let l=document.createElementNS(s,&quot;canvas&quot;);d(l,{width:i.width,height:i.height});const c=l.getContext(&quot;2d&quot;);let u=c.createImageData(i.width,i.height);const f=new b(a);&quot;objectBoundingBox&quot;===a.getAttribute(&quot;gradientUnits&quot;)&amp;&amp;f.scale(new x(i.width,i.height));const p=a.getAttribute(&quot;gradientTransform&quot;);null!=p&amp;&amp;f.transform(h(p)),&quot;userSpaceOnUse&quot;===a.getAttribute(&quot;gradientUnits&quot;)&amp;&amp;f.transform(new x(-i.x,-i.y)),f.paintMesh(u.data,l.width),c.putImageData(u,0,0);const y=document.createElementNS(t,&quot;image&quot;);d(y,{width:i.width,height:i.height,x:i.x,y:i.y});let g=l.toDataURL();y.setAttributeNS(e,&quot;xlink:href&quot;,g),r.parentNode.insertBefore(y,r),r.style.fill=&quot;none&quot;;const w=document.createElementNS(t,&quot;use&quot;);w.setAttributeNS(e,&quot;xlink:href&quot;,&quot;#&quot;+o);const m=&quot;patchjs_clip&quot;+n,M=document.createElementNS(t,&quot;clipPath&quot;);M.setAttribute(&quot;id&quot;,m),M.appendChild(w),r.parentElement.insertBefore(M,r),y.setAttribute(&quot;clip-path&quot;,&quot;url(#&quot;+m+&quot;)&quot;),u=null,l=null,g=null}}if(a&amp;&amp;a[1]){const o=document.getElementById(a[1]);if(o&amp;&amp;&quot;meshgradient&quot;===o.nodeName){const i=parseFloat(r.style.strokeWidth.slice(0,-2))*(parseFloat(r.style.strokeMiterlimit)||parseFloat(r.getAttribute(&quot;stroke-miterlimit&quot;))||1),a=r.getBBox(),l=Math.trunc(a.width+i),c=Math.trunc(a.height+i),u=Math.trunc(a.x-i/2),f=Math.trunc(a.y-i/2);let p=document.createElementNS(s,&quot;canvas&quot;);d(p,{width:l,height:c});const y=p.getContext(&quot;2d&quot;);let g=y.createImageData(l,c);const w=new b(o);&quot;objectBoundingBox&quot;===o.getAttribute(&quot;gradientUnits&quot;)&amp;&amp;w.scale(new x(l,c));const m=o.getAttribute(&quot;gradientTransform&quot;);null!=m&amp;&amp;w.transform(h(m)),&quot;userSpaceOnUse&quot;===o.getAttribute(&quot;gradientUnits&quot;)&amp;&amp;w.transform(new x(-u,-f)),w.paintMesh(g.data,p.width),y.putImageData(g,0,0);const M=document.createElementNS(t,&quot;image&quot;);d(M,{width:l,height:c,x:0,y:0});let S=p.toDataURL();M.setAttributeNS(e,&quot;xlink:href&quot;,S);const k=&quot;pattern_clip&quot;+n,A=document.createElementNS(t,&quot;pattern&quot;);d(A,{id:k,patternUnits:&quot;userSpaceOnUse&quot;,width:l,height:c,x:u,y:f}),A.appendChild(M),o.parentNode.appendChild(A),r.style.stroke=&quot;url(#&quot;+k+&quot;)&quot;,g=null,p=null,S=null}}})}();</script></svg>
